<?xml version="1.0" standalone="no"?>
<!DOCTYPE svg PUBLIC "-//W3C//DTD SVG 20010904//EN"
 "http://www.w3.org/TR/2001/REC-SVG-20010904/DTD/svg10.dtd">
<svg version="1.0" xmlns="http://www.w3.org/2000/svg"
 width="1280.000000pt" height="640.000000pt" viewBox="0 0 1280.000000 640.000000"
 preserveAspectRatio="xMidYMid meet">
<g transform="translate(0.000000,640.000000) scale(0.100000,-0.100000)"
fill="#000000" stroke="none">
<path d="M1260 5290 c-73 -7 -107 -22 -170 -75 -24 -20 -64 -47 -90 -60 -80
-40 -414 -399 -541 -580 -23 -33 -78 -118 -122 -190 -44 -71 -120 -193 -170
-270 -107 -165 -167 -271 -167 -295 0 -20 26 -45 56 -54 37 -11 116 13 181 55
111 73 261 113 543 148 91 11 214 30 274 41 61 11 137 20 170 20 109 -1 249
-73 361 -186 121 -122 184 -252 250 -517 48 -195 65 -240 102 -279 40 -42 97
-38 241 16 191 70 344 103 807 171 281 42 256 43 403 -28 56 -27 102 -59 141
-97 135 -132 196 -266 290 -631 42 -164 79 -237 112 -224 8 3 48 53 89 111 41
58 92 122 114 141 76 69 279 139 375 130 67 -6 278 -75 365 -119 88 -44 136
-79 267 -194 203 -179 304 -316 452 -609 48 -93 105 -198 127 -232 85 -129
350 -338 457 -361 27 -6 166 -14 309 -18 l259 -6 105 68 c267 172 312 218 414
422 99 197 163 305 237 397 208 258 435 441 621 500 147 46 384 53 479 12 20
-8 100 -60 176 -115 163 -117 206 -141 231 -126 28 18 40 52 62 184 12 69 32
158 46 198 68 204 205 397 330 464 116 63 265 73 541 38 422 -54 567 -94 723
-200 116 -78 142 -84 189 -44 56 47 129 234 155 399 18 110 36 167 87 266 113
217 327 379 501 379 131 0 643 -92 883 -159 220 -62 229 -62 260 -15 15 23 15
28 -2 67 -82 191 -275 515 -423 712 -219 289 -411 485 -566 577 -80 47 -310
136 -374 145 -35 5 -113 -10 -461 -87 -368 -82 -434 -107 -1099 -413 -245
-112 -463 -210 -485 -217 -109 -34 -616 -306 -900 -482 -154 -95 -340 -201
-385 -218 -19 -7 -56 -33 -81 -56 -25 -23 -84 -60 -131 -83 -131 -62 -374
-245 -572 -430 -172 -160 -264 -155 -356 18 -39 72 -61 93 -95 94 -41 0 -86
-53 -160 -186 -78 -142 -96 -164 -144 -177 -53 -15 -177 -12 -209 4 -39 20
-127 116 -209 226 -137 187 -173 193 -243 45 -43 -89 -86 -135 -127 -135 -27
0 -48 19 -157 145 -164 189 -352 338 -639 506 -106 62 -325 192 -487 289 -440
263 -602 353 -782 434 -90 40 -296 135 -458 211 -162 75 -333 153 -380 172
-47 20 -154 66 -238 104 -151 68 -343 139 -375 139 -9 0 -90 25 -181 55 -141
47 -181 56 -283 65 -130 11 -422 11 -523 0z m4936 -2835 c63 -26 78 -109 28
-156 -29 -27 -115 -33 -157 -10 -88 47 -33 170 81 180 7 0 28 -6 48 -14z m645
-20 c59 -31 58 -109 -2 -159 -41 -35 -63 -39 -99 -21 -68 35 -93 135 -44 174
32 25 101 28 145 6z"/>
</g>
</svg>
